# xmcd CD database file
#
# Track frame offsets:
#	150
#	19760
#	40697
#	57990
#
# Disc length: 1008 seconds
#
# Revision: 2
# Processed by: cddbd v1.5.1PL0 Copyright (c) Steve Scherf et al.
# Submitted via: CDex 1.51
#
DISCID=2903ee04
DTITLE=NEWS - TEPPEN
DYEAR=2005
DGENRE=JPop
TTITLE0=TEPPEN
TTITLE1=夢の数だけ愛が生まれる
TTITLE2=NANDE×2 DAME
TTITLE3=Fiesta
EXTD=YEAR: 2005
EXTT0=
EXTT1=
EXTT2=
EXTT3=
PLAYORDER=
